HIERARCHY
ROOT Hips
{
	OFFSET 54.512901 -50.276115 85.963692
	CHANNELS 6 Xposition Yposition Zposition Xrotation Yrotation Zrotation
	JOINT spine
	{
		OFFSET 0.000000 -0.367607 6.392601
		CHANNELS 3 Xrotation Yrotation Zrotation
		JOINT spine1
		{
			OFFSET 0.000000 0.000000 9.176109
			CHANNELS 3 Xrotation Yrotation Zrotation
			JOINT spine2
			{
				OFFSET 0.000000 -0.000004 8.792381
				CHANNELS 3 Xrotation Yrotation Zrotation
				JOINT Neck
				{
					OFFSET 0.000000 -1.076244 22.573700
					CHANNELS 3 Xrotation Yrotation Zrotation
					JOINT Head
					{
						OFFSET 0.000000 0.000000 6.820114
						CHANNELS 3 Xrotation Yrotation Zrotation
						End Site
						{
							OFFSET 0.000000 5.444267 16.508514
						}
					}
				}
				JOINT RightShoulder
				{
					OFFSET -3.702209 0.515507 9.495087
					CHANNELS 3 Xrotation Yrotation Zrotation
					JOINT RightArm
					{
						OFFSET 0.000000 -0.000004 12.453690
						CHANNELS 3 Xrotation Yrotation Zrotation
						JOINT RightArmRoll
						{
							OFFSET 0.000000 0.000000 6.286865
							CHANNELS 3 Xrotation Yrotation Zrotation
							JOINT RightForeArm
							{
								OFFSET 0.000000 -0.000004 18.311401
								CHANNELS 3 Xrotation Yrotation Zrotation
								JOINT RightForeArmRoll
								{
									OFFSET 0.000000 0.000000 7.054825
									CHANNELS 3 Xrotation Yrotation Zrotation
									JOINT RightHand
									{
										OFFSET 0.000000 -0.000004 14.157501
										CHANNELS 3 Xrotation Yrotation Zrotation
										End Site
										{
											OFFSET 0.000000 0.000000 0.100006
										}
									}
								}
							}
						}
					}
				}
				JOINT LeftShoulder
				{
					OFFSET 3.702209 0.515507 9.495087
					CHANNELS 3 Xrotation Yrotation Zrotation
					JOINT LeftArm
					{
						OFFSET 0.000000 -0.000004 12.453690
						CHANNELS 3 Xrotation Yrotation Zrotation
						JOINT LeftArmRoll
						{
							OFFSET 0.000000 0.000000 6.286865
							CHANNELS 3 Xrotation Yrotation Zrotation
							JOINT LeftForeArm
							{
								OFFSET 0.000000 -0.000004 18.311401
								CHANNELS 3 Xrotation Yrotation Zrotation
								JOINT LeftForeArmRoll
								{
									OFFSET 0.000000 0.000000 7.054825
									CHANNELS 3 Xrotation Yrotation Zrotation
									JOINT LeftHand
									{
										OFFSET 0.000000 -0.000004 14.157501
										CHANNELS 3 Xrotation Yrotation Zrotation
										End Site
										{
											OFFSET 0.000000 0.000000 0.100006
										}
									}
								}
							}
						}
					}
				}
			}
		}
	}
	JOINT RightUpLeg
	{
		OFFSET -5.666161 0.871609 -1.039032
		CHANNELS 3 Xrotation Yrotation Zrotation
		JOINT RightUpLegRoll
		{
			OFFSET 0.000000 0.000000 16.600502
			CHANNELS 3 Xrotation Yrotation Zrotation
			JOINT RightLeg
			{
				OFFSET 0.000000 0.000004 -20.557198
				CHANNELS 3 Xrotation Yrotation Zrotation
				JOINT RightLegRoll
				{
					OFFSET 0.000000 -0.000004 20.624397
					CHANNELS 3 Xrotation Yrotation Zrotation
					JOINT RightFoot
					{
						OFFSET 0.000000 -0.000004 17.166405
						CHANNELS 3 Xrotation Yrotation Zrotation
						JOINT RightToeBase
						{
							OFFSET 0.000000 -0.000004 14.350197
							CHANNELS 3 Xrotation Yrotation Zrotation
							End Site
							{
								OFFSET 0.006081 0.801060 6.949707
							}
						}
					}
				}
			}
		}
	}
	JOINT LeftUpLeg
	{
		OFFSET 5.666161 0.871609 -1.039032
		CHANNELS 3 Xrotation Yrotation Zrotation
		JOINT LeftUpLegRoll
		{
			OFFSET 0.000000 0.000000 16.600601
			CHANNELS 3 Xrotation Yrotation Zrotation
			JOINT LeftLeg
			{
				OFFSET 0.000000 -0.000004 20.557098
				CHANNELS 3 Xrotation Yrotation Zrotation
				JOINT LeftLegRoll
				{
					OFFSET 0.000000 -0.000004 20.815086
					CHANNELS 3 Xrotation Yrotation Zrotation
					JOINT LeftFoot
					{
						OFFSET 0.000000 -0.000004 16.975708
						CHANNELS 3 Xrotation Yrotation Zrotation
						JOINT LeftToeBase
						{
							OFFSET 0.000000 0.000000 14.350204
							CHANNELS 3 Xrotation Yrotation Zrotation
							End Site
							{
								OFFSET -0.027260 0.801056 6.949707
							}
						}
					}
				}
			}
		}
	}
}
MOTION
Frames: 5
Frame Time: 0.041667
52.434700 -8.075397 57.145000 -7.542406 0.070977 2.143628 -2.415514 0.353718 -0.092103 -0.831196 0.734098 -0.167233 0.813931 0.732040 -0.176014 31.943538 -10.263198 0.588306 -7.705572 7.744101 -0.279538 -16.681050 -79.757956 -19.970344 95.057457 -74.810946 70.331619 0.000000 0.000001 0.000000 59.684884 -12.058964 7.439722 0.000014 0.000006 -2.999992 -5.000075 -7.998686 0.000031 14.294362 74.830760 -13.534769 88.896107 76.735891 -74.649255 -0.000002 -0.000006 0.000006 53.379291 16.017004 -5.239327 -0.000006 0.000002 3.000001 -4.999751 7.998765 0.000040 -70.044908 -171.365635 3.995981 -179.999991 0.000005 -0.953995 110.479041 -2.788289 -4.183225 0.000000 0.000001 1.101800 66.990864 7.183424 1.544820 25.456955 -7.348880 0.000002 -71.282716 172.242918 0.557269 -0.000021 -0.000003 -1.082380 -72.579202 -1.516007 0.676296 -0.000002 -0.000002 -1.367770 64.467628 -7.140505 -1.837441 25.458574 7.355618 -0.002491 
52.457699 -8.177628 57.062691 -7.553435 0.072088 2.132988 -2.411063 0.352818 -0.096147 -0.822019 0.730685 -0.175759 0.823106 0.728526 -0.184498 31.903042 -10.187702 0.588994 -7.673501 7.686207 -0.270773 -16.412636 -79.756201 -19.686543 95.088145 -74.818241 70.377122 0.000002 0.000001 -0.000004 59.690020 -12.053987 7.434464 0.000014 0.000007 -2.999990 -5.000077 -7.998684 0.000032 14.007106 74.837754 -13.225966 89.016906 76.704507 -74.744625 0.000002 -0.000007 0.000006 53.364790 16.026322 -5.243736 -0.000009 0.000005 3.000001 -4.999755 7.998766 0.000040 -70.037989 -171.377205 3.993668 -179.999991 0.000004 -0.953995 110.469547 -2.785989 -4.181885 -0.000001 0.000000 1.101800 66.997408 7.182447 1.546695 25.456953 -7.348880 0.000001 -71.279014 172.220242 0.545163 -0.000020 -0.000005 -1.082380 -72.595594 -1.511632 0.679385 -0.000002 -0.000002 -1.366690 64.461727 -7.139452 -1.839790 25.458577 7.355618 -0.002492 
52.448898 -8.149651 57.087883 -7.564435 0.073334 2.122289 -2.406616 0.351932 -0.100250 -0.812842 0.727223 -0.184406 0.832283 0.724959 -0.193102 31.861729 -10.112244 0.589851 -7.640768 7.628385 -0.261874 -16.142358 -79.754323 -19.400816 95.118990 -74.825829 70.422665 -0.000000 0.000002 -0.000001 59.695457 -12.048958 7.429259 0.000012 0.000007 -2.999992 -5.000075 -7.998687 0.000032 13.715041 74.844243 -12.912049 89.138811 76.672664 -74.840971 0.000002 -0.000006 0.000006 53.348941 16.036118 -5.248258 -0.000009 0.000002 3.000001 -4.999754 7.998765 0.000038 -70.031132 -171.389186 3.992172 -179.999991 0.000005 -0.953995 110.459554 -2.783624 -4.179557 0.000000 0.000001 1.101800 67.004149 7.181453 1.548550 25.456957 -7.348881 0.000003 -71.275695 172.196965 0.533175 -0.000021 -0.000004 -1.082380 -72.612486 -1.507182 0.682514 -0.000003 -0.000002 -1.365570 64.455594 -7.138319 -1.842232 25.458574 7.355618 -0.002491 
52.445801 -8.139462 57.102795 -7.575416 0.074677 2.111542 -2.402175 0.351054 -0.104394 -0.803664 0.723726 -0.193136 0.841460 0.721357 -0.201789 31.819905 -10.036779 0.590846 -7.607583 7.570609 -0.252864 -15.870783 -79.752287 -19.113719 95.149624 -74.833820 70.467991 -0.000002 0.000001 -0.000002 59.701160 -12.043781 7.423920 0.000013 0.000008 -2.999989 -5.000078 -7.998678 0.000032 13.419677 74.850438 -12.594630 89.261830 76.640467 -74.938588 -0.000001 -0.000006 0.000003 53.332224 16.046298 -5.252920 -0.000010 0.000002 3.000002 -4.999752 7.998766 0.000040 -70.024513 -171.400865 3.989524 -179.999991 0.000005 -0.953995 110.449370 -2.781237 -4.178251 -0.000000 0.000001 1.101800 67.011095 7.180401 1.550583 25.456955 -7.348882 0.000002 -71.272723 172.173428 0.520862 -0.000020 -0.000004 -1.082380 -72.629677 -1.502677 0.685688 -0.000003 -0.000002 -1.364430 64.449166 -7.137214 -1.844803 25.458576 7.355618 -0.002493 
52.445599 -8.151825 57.093601 -7.586387 0.076076 2.100772 -2.397735 0.350181 -0.108560 -0.794485 0.720207 -0.201912 0.850639 0.717733 -0.210523 31.777735 -9.961291 0.591945 -7.574127 7.512878 -0.243767 -15.598661 -79.750163 -18.826069 95.180653 -74.841805 70.513712 -0.000001 -0.000001 -0.000002 59.707089 -12.038582 7.418708 0.000014 0.000006 -2.999990 -5.000079 -7.998683 0.000035 13.122231 74.856162 -12.275021 89.385511 76.608112 -75.036813 0.000002 -0.000005 0.000005 53.314947 16.056742 -5.257702 -0.000008 0.000001 3.000001 -4.999754 7.998765 0.000040 -70.017758 -171.412900 3.987810 -179.999991 0.000004 -0.953995 110.439077 -2.778831 -4.176933 -0.000001 0.000000 1.101800 67.018123 7.179319 1.552703 25.456955 -7.348882 0.000003 -71.269780 172.149864 0.507849 -0.000020 -0.000005 -1.082380 -72.647162 -1.498134 0.688880 -0.000002 -0.000002 -1.363272 64.442732 -7.136066 -1.847264 25.458572 7.355617 -0.002492 
